<svg width="426" height="426" viewBox="0 0 426 426" fill="none" xmlns="http://www.w3.org/2000/svg">
<path d="M416.628 244.997L235.625 372.974C223.13 381.809 202.87 381.809 190.375 372.974L9.37173 244.997C3.1239 240.58 -3.95076e-06 234.79 0 229V196.6H426V229C426 234.79 422.876 240.58 416.628 244.997Z" fill="url(#paint0_linear_399_249)"/>
<path d="M416.628 244.997L235.625 372.974C223.13 381.809 202.87 381.809 190.375 372.974L9.37173 244.997C3.1239 240.58 -3.95076e-06 234.79 0 229V196.6H426V229C426 234.79 422.876 240.58 416.628 244.997Z" fill="url(#paint1_linear_399_249)"/>
<path d="M416.628 180.603L235.625 52.6262C223.13 43.7913 202.87 43.7913 190.375 52.6262L9.37173 180.603C-3.12391 189.438 -3.12391 203.762 9.37173 212.597L190.375 340.574C202.87 349.409 223.13 349.409 235.625 340.574L416.628 212.597C429.124 203.762 429.124 189.438 416.628 180.603Z" fill="#D9D9D9"/>
<path d="M416.628 180.603L235.625 52.6262C223.13 43.7913 202.87 43.7913 190.375 52.6262L9.37173 180.603C-3.12391 189.438 -3.12391 203.762 9.37173 212.597L190.375 340.574C202.87 349.409 223.13 349.409 235.625 340.574L416.628 212.597C429.124 203.762 429.124 189.438 416.628 180.603Z" fill="url(#paint2_linear_399_249)"/>
<path d="M416.628 180.603L235.625 52.6262C223.13 43.7913 202.87 43.7913 190.375 52.6262L9.37173 180.603C-3.12391 189.438 -3.12391 203.762 9.37173 212.597L190.375 340.574C202.87 349.409 223.13 349.409 235.625 340.574L416.628 212.597C429.124 203.762 429.124 189.438 416.628 180.603Z" fill="url(#paint3_linear_399_249)"/>
<g filter="url(#filter0_d_399_249)">
<path fill-rule="evenodd" clip-rule="evenodd" d="M314.829 201.866C319.935 198.254 322.987 194 323.986 189.104C325.037 184.171 321.979 179.168 314.812 174.097L308.112 169.357C309.04 173.183 308.667 177.085 306.994 181.062C305.321 185.039 301.488 189.147 295.497 193.386C286.223 199.947 275.371 202.811 262.941 201.978C250.511 201.072 238.842 196.76 227.935 189.043L225.442 187.279C214.535 179.562 208.311 171.361 206.769 162.677C205.228 153.919 209.302 146.112 218.992 139.255C223.994 135.717 229.617 133.208 235.863 131.729C242.108 130.25 247.831 129.912 253.031 130.716L253.265 130.551L243.995 123.77L269.393 105.8L336.315 153.15C349.715 162.631 356.274 172.469 355.991 182.665C355.761 192.897 349.42 202.418 336.968 211.228L208.958 301.8L191.273 289.287L314.829 201.866ZM271.264 178.12C265.336 177.243 259.515 174.783 253.802 170.741L251.387 169.032C245.725 165.027 242.249 160.908 240.958 156.677C239.667 152.446 241.47 148.598 246.367 145.133C249.701 142.774 253.449 141.445 257.612 141.146C261.826 140.81 265.752 141.192 269.391 142.292L291.517 157.947C292.968 160.374 293.482 163.097 293.059 166.116C292.637 169.134 290.784 171.805 287.502 174.127C282.553 177.629 277.14 178.96 271.264 178.12Z" fill="url(#paint4_linear_399_249)"/>
<path d="M174.835 277.657L60 196.406L85.8668 178.104L135.572 213.272C134.8 209.188 135.355 205.157 137.236 201.18C139.066 197.166 142.559 193.335 147.717 189.686C157.095 183.05 168.129 180.131 180.82 180.927C193.458 181.686 205.179 185.887 215.982 193.531L218.475 195.295C229.33 202.975 235.424 211.452 236.756 220.725C238.089 229.999 234.066 237.953 224.688 244.588C219.531 248.237 214.089 250.838 208.364 252.39C202.638 253.942 197.201 254.371 192.053 253.678L191.897 253.788L200.155 259.742L174.835 277.657ZM174.992 241.164C178.58 242.154 182.454 242.5 186.616 242.201C190.778 241.902 194.709 240.444 198.408 237.826C202.993 234.583 204.561 230.827 203.114 226.559C201.667 222.217 198.087 218.026 192.374 213.983L190.036 212.33C184.323 208.287 178.581 205.883 172.808 205.116C167.036 204.276 161.701 205.588 156.804 209.053C153.418 211.449 151.487 214.138 151.012 217.12C150.59 220.065 151.104 222.788 152.555 225.289L174.992 241.164Z" fill="url(#paint5_linear_399_249)"/>
</g>
<defs>
<filter id="filter0_d_399_249" x="41.6" y="95.4" width="332.8" height="232.8" filterUnits="userSpaceOnUse" color-interpolation-filters="sRGB">
<feFlood flood-opacity="0" result="BackgroundImageFix"/>
<feColorMatrix in="SourceAlpha" type="matrix" values="0 0 0 0 0 0 0 0 0 0 0 0 0 0 0 0 0 0 127 0" result="hardAlpha"/>
<feOffset dy="8"/>
<feGaussianBlur stdDeviation="9.2"/>
<feComposite in2="hardAlpha" operator="out"/>
<feColorMatrix type="matrix" values="0 0 0 0 0 0 0 0 0 0 0 0 0 0 0 0 0 0 0.25 0"/>
<feBlend mode="normal" in2="BackgroundImageFix" result="effect1_dropShadow_399_249"/>
<feBlend mode="normal" in="SourceGraphic" in2="effect1_dropShadow_399_249" result="shape"/>
</filter>
<linearGradient id="paint0_linear_399_249" x1="127.008" y1="227.288" x2="174.926" y2="391.583" gradientUnits="userSpaceOnUse">
<stop stop-color="#0F3F7D"/>
<stop offset="1" stop-color="#10284C"/>
</linearGradient>
<linearGradient id="paint1_linear_399_249" x1="213" y1="196.6" x2="213" y2="379.6" gradientUnits="userSpaceOnUse">
<stop stop-color="#10243E"/>
<stop offset="1" stop-color="#0F1B2D"/>
</linearGradient>
<linearGradient id="paint2_linear_399_249" x1="213" y1="46" x2="213" y2="347.2" gradientUnits="userSpaceOnUse">
<stop stop-color="#10243E"/>
<stop offset="1" stop-color="#0F1B2D"/>
</linearGradient>
<linearGradient id="paint3_linear_399_249" x1="127.008" y1="96.51" x2="241.48" y2="334.974" gradientUnits="userSpaceOnUse">
<stop stop-color="#0F3F7D"/>
<stop offset="1" stop-color="#10284C"/>
</linearGradient>
<linearGradient id="paint4_linear_399_249" x1="235.123" y1="72.4994" x2="422.665" y2="337.561" gradientUnits="userSpaceOnUse">
<stop offset="0.170139" stop-color="#EAF6FF"/>
<stop offset="0.378472" stop-color="#97CBFF"/>
<stop offset="0.690972" stop-color="#EAF6FF"/>
<stop offset="0.815972" stop-color="#97CBFF"/>
</linearGradient>
<linearGradient id="paint5_linear_399_249" x1="235.123" y1="72.4994" x2="422.665" y2="337.561" gradientUnits="userSpaceOnUse">
<stop offset="0.170139" stop-color="#EAF6FF"/>
<stop offset="0.378472" stop-color="#97CBFF"/>
<stop offset="0.690972" stop-color="#EAF6FF"/>
<stop offset="0.815972" stop-color="#97CBFF"/>
</linearGradient>
</defs>
</svg>
